<svg width="47" height="47" viewBox="0 0 47 47" fill="none" xmlns="http://www.w3.org/2000/svg">
<rect width="47" height="47" rx="10" fill="white"/>
<path d="M10.9432 32.7005C11.1449 32.7005 11.3003 32.7005 11.4556 32.7005C19.4935 32.7005 27.5315 32.7037 35.5694 32.6899C35.985 32.6899 36.0444 32.8339 36.0549 33.2015C36.1045 34.8802 35.1196 35.7154 34.1412 35.9578C33.8696 36.0253 33.5776 36.0294 33.2954 36.0294C26.7352 36.031 20.1743 36.0147 13.6141 36.0375C12.1315 36.0424 11.2084 35.081 11.0286 34.184C10.9367 33.7269 10.9709 33.2446 10.9441 32.7005H10.9432Z" fill="black"/>
<path d="M34.3503 31.008H28.5554C28.5481 30.8453 28.5351 30.7014 28.5351 30.5582C28.5335 27.4425 28.5327 24.3259 28.5351 21.2101C28.5359 19.9576 29.1475 19.3395 30.4 19.3273C31.1588 19.32 31.9177 19.3134 32.6757 19.3322C33.689 19.3566 34.3633 20.0178 34.3673 21.0214C34.3787 24.273 34.3722 27.5246 34.3722 30.7762C34.3722 30.8421 34.3608 30.908 34.3511 31.0088L34.3503 31.008Z" fill="black"/>
<path d="M23.5439 18.8824C25.6024 16.7507 27.6235 14.6581 29.6446 12.5646C29.6795 12.5817 29.7145 12.5996 29.7495 12.6167C29.6543 12.6037 29.56 12.5809 29.4648 12.5801C28.9093 12.576 28.3538 12.5866 27.7983 12.5752C27.4023 12.5671 27.0745 12.3971 26.9411 12.0107C26.8281 11.6822 26.9061 11.3585 27.1941 11.134C27.3022 11.0494 27.4543 10.973 27.5861 10.9722C29.0492 10.9608 30.5124 10.9591 31.9755 10.9689C32.3781 10.9713 32.6709 11.2422 32.6774 11.6529C32.6993 13.0884 32.7107 14.5239 32.6912 15.9594C32.6839 16.4783 32.313 16.8085 31.8787 16.7946C31.42 16.7808 31.0743 16.4189 31.063 15.9C31.0483 15.2249 31.0597 14.5491 31.0597 13.7585C30.8694 13.9326 30.7433 14.0391 30.6262 14.1546C28.5604 16.1887 26.4946 18.2236 24.4288 20.2577C24.3133 20.3716 24.197 20.4862 24.0734 20.5911C23.6432 20.9588 23.2186 20.9401 22.8258 20.5236C21.9425 19.5875 21.065 18.6465 20.1842 17.7088C20.0548 17.5713 19.9182 17.4404 19.7409 17.2623C19.3424 17.8104 18.9544 18.3391 18.5714 18.8718C17.6621 20.1357 16.7561 21.4012 15.8468 22.6651C15.5402 23.0913 15.0213 23.2206 14.6496 22.9693C14.2405 22.6919 14.1681 22.1738 14.4983 21.7135C15.981 19.6453 17.4669 17.5795 18.9577 15.5169C19.3188 15.0175 19.8832 14.9793 20.3094 15.4299C21.2683 16.4433 22.215 17.468 23.1674 18.4879C23.2682 18.5953 23.3707 18.701 23.5447 18.8824H23.5439Z" fill="black"/>
<path d="M26.3702 31.0121H20.5917C20.5827 30.8649 20.5681 30.7347 20.5681 30.6046C20.5665 28.5713 20.5648 26.5389 20.5673 24.5056C20.5689 23.3499 21.2236 22.6862 22.3704 22.6781C23.156 22.6724 23.9425 22.6683 24.7282 22.6797C25.6814 22.6936 26.3889 23.3613 26.3971 24.3104C26.4158 26.4925 26.4028 28.6738 26.4011 30.8559C26.4011 30.895 26.3865 30.934 26.3702 31.0121Z" fill="black"/>
<path d="M12.6146 30.9747C12.6146 29.8173 12.5731 28.6535 12.6293 27.4945C12.6667 26.7243 13.2222 26.1274 14.0086 26.0712C15.0432 25.9972 16.0931 26.0094 17.126 26.0997C17.8971 26.1672 18.4168 26.8479 18.4298 27.6255C18.4485 28.7226 18.4346 29.8198 18.4346 30.9747H12.6146Z" fill="black"/>
</svg>
