<svg width="167" height="51" viewBox="0 0 167 51" fill="none" xmlns="http://www.w3.org/2000/svg">
<path d="M15.3472 34.2479C15.5489 34.2479 15.7042 34.2479 15.8596 34.2479C23.8975 34.2479 31.9354 34.2512 39.9733 34.2373C40.3889 34.2373 40.4483 34.3813 40.4589 34.7489C40.5085 36.4276 39.5236 37.2628 38.5452 37.5052C38.2735 37.5727 37.9815 37.5768 37.6993 37.5768C31.1392 37.5784 24.5782 37.5621 18.0181 37.5849C16.5354 37.5898 15.6123 36.6285 15.4326 35.7314C15.3407 35.2743 15.3748 34.792 15.348 34.2479H15.3472Z" fill="black"/>
<path d="M38.7542 32.5554H32.9594C32.9521 32.3928 32.9391 32.2488 32.9391 32.1057C32.9375 28.9899 32.9366 25.8733 32.9391 22.7575C32.9399 21.505 33.5515 20.8869 34.804 20.8747C35.5628 20.8674 36.3216 20.8609 37.0796 20.8796C38.093 20.904 38.7672 21.5652 38.7713 22.5688C38.7827 25.8204 38.7762 29.072 38.7762 32.3236C38.7762 32.3895 38.7648 32.4554 38.755 32.5562L38.7542 32.5554Z" fill="black"/>
<path d="M27.9478 20.4298C30.0063 18.2981 32.0274 16.2055 34.0485 14.112C34.0834 14.1291 34.1184 14.147 34.1534 14.1641C34.0582 14.1511 33.9639 14.1283 33.8687 14.1275C33.3132 14.1234 32.7577 14.134 32.2023 14.1226C31.8062 14.1145 31.4784 13.9445 31.345 13.5582C31.232 13.2296 31.3101 12.9059 31.598 12.6814C31.7061 12.5968 31.8582 12.5204 31.99 12.5196C33.4531 12.5082 34.9163 12.5066 36.3794 12.5163C36.782 12.5188 37.0748 12.7896 37.0813 13.2003C37.1032 14.6358 37.1146 16.0713 37.0951 17.5068C37.0878 18.0257 36.7169 18.3559 36.2826 18.3421C35.8239 18.3282 35.4783 17.9663 35.4669 17.4474C35.4522 16.7724 35.4636 16.0965 35.4636 15.306C35.2733 15.48 35.1472 15.5866 35.0301 15.7021C32.9643 17.7361 30.8985 19.771 28.8327 21.8051C28.7172 21.919 28.6009 22.0337 28.4773 22.1386C28.0471 22.5062 27.6225 22.4875 27.2297 22.0711C26.3464 21.135 25.4689 20.194 24.5881 19.2562C24.4587 19.1188 24.3221 18.9878 24.1448 18.8097C23.7463 19.3579 23.3583 19.8865 22.9753 20.4192C22.066 21.6831 21.16 22.9486 20.2507 24.2125C19.9441 24.6387 19.4252 24.768 19.0535 24.5167C18.6444 24.2393 18.572 23.7213 18.9022 23.2609C20.3849 21.1927 21.8708 19.1269 23.3616 17.0643C23.7227 16.565 24.2871 16.5267 24.7133 16.9773C25.6722 17.9907 26.6189 19.0155 27.5713 20.0354C27.6721 20.1427 27.7746 20.2484 27.9487 20.4298H27.9478Z" fill="black"/>
<path d="M30.7742 32.5595H24.9956C24.9867 32.4123 24.972 32.2822 24.972 32.152C24.9704 30.1188 24.9688 28.0863 24.9712 26.053C24.9729 24.8973 25.6276 24.2337 26.7743 24.2255C27.56 24.2198 28.3465 24.2158 29.1321 24.2272C30.0853 24.241 30.7929 24.9087 30.801 25.8578C30.8197 28.0399 30.8067 30.2212 30.8051 32.4033C30.8051 32.4424 30.7905 32.4814 30.7742 32.5595Z" fill="black"/>
<path d="M17.0186 32.5221C17.0186 31.3648 16.9771 30.2009 17.0332 29.0419C17.0706 28.2717 17.6261 27.6748 18.4126 27.6187C19.4471 27.5446 20.4971 27.5568 21.53 27.6471C22.301 27.7146 22.8207 28.3954 22.8337 29.1729C22.8524 30.27 22.8386 31.3672 22.8386 32.5221H17.0186Z" fill="black"/>
<path d="M76.1198 23.1778V32.4767H72.8474V17.5576C73.7898 17.5576 74.703 17.5235 75.6096 17.5803C75.842 17.5949 76.1068 17.8598 76.2726 18.0759C78.3134 20.7341 80.3395 23.4053 82.3706 26.0733C82.468 26.2 82.5737 26.3219 82.806 26.603V17.6209H86.1077V32.5417C85.2481 32.5417 84.3675 32.5742 83.4933 32.5173C83.2918 32.5043 83.0806 32.2103 82.923 32.0055C80.8188 29.2596 78.7228 26.5055 76.6235 23.7547C76.5147 23.6117 76.3879 23.4817 76.1198 23.1746V23.1778Z" fill="#393939"/>
<path d="M109.918 23.1551V32.493H106.657V17.5559C107.591 17.5559 108.483 17.5234 109.369 17.5787C109.606 17.5933 109.882 17.8354 110.045 18.0466C112.072 20.6821 114.082 23.3306 116.099 25.9758C116.222 26.1383 116.357 26.2943 116.635 26.6338V17.6031H119.92V32.5466C119.062 32.5466 118.23 32.5823 117.407 32.5238C117.173 32.5076 116.908 32.2476 116.744 32.0348C114.633 29.2921 112.54 26.538 110.441 23.7871C110.327 23.6377 110.202 23.4979 109.919 23.1567L109.918 23.1551Z" fill="#393939"/>
<path d="M150.579 17.6144V20.5164H142.65V23.4979C144.414 23.4979 146.138 23.4979 147.862 23.4979C149.085 23.4979 149.695 24.104 149.692 25.3161C149.69 26.1058 149.299 26.5006 148.519 26.5006C146.577 26.5006 144.635 26.5006 142.652 26.5006V29.5732H150.681V32.5027H139.373V17.6144H150.579Z" fill="#393939"/>
<path d="M104.319 32.5482C103.232 32.5482 102.284 32.5807 101.344 32.5255C101.106 32.5108 100.786 32.2606 100.676 32.0364C100.31 31.2874 100.005 30.5058 99.7139 29.7226C99.5742 29.3473 99.3987 29.167 98.9649 29.1718C97.2344 29.1946 95.5024 29.154 93.7736 29.2043C93.4925 29.2124 93.1041 29.5033 92.966 29.7698C92.6069 30.4603 92.3323 31.1996 92.0789 31.9373C91.9099 32.4296 91.6353 32.5872 91.1235 32.5612C90.2672 32.5173 89.4076 32.5498 88.4263 32.5498C88.9251 31.3588 89.3768 30.2718 89.8382 29.1897C91.3899 25.542 92.9563 21.9007 94.4852 18.2432C94.7355 17.6453 95.0198 17.3886 95.712 17.4048C97.899 17.4568 97.9022 17.4211 98.7504 19.4099C100.518 23.5532 102.283 27.6965 104.047 31.8398C104.129 32.0315 104.197 32.2297 104.319 32.5515V32.5482ZM98.2727 26.1935C97.6325 24.6239 97.0183 23.121 96.3375 21.4539C95.6632 23.1096 95.0523 24.6126 94.4089 26.1935H98.2727Z" fill="#393939"/>
<path d="M136.568 19.6487C135.865 20.4579 135.195 21.2264 134.531 21.9901C131.247 19.8941 129.067 19.8648 127.412 21.865C125.882 23.714 125.994 26.8126 127.651 28.4943C129.442 30.3108 131.843 30.1549 134.539 28.0588C135.231 28.7331 135.922 29.4042 136.609 30.072C134.393 33.2648 128.88 33.7685 125.62 31.1005C122.195 28.2961 121.878 22.9016 124.949 19.678C127.979 16.4949 133.681 16.4576 136.57 19.652L136.568 19.6487Z" fill="#393939"/>
<path d="M54.9077 26.7313V32.4832H51.6223V17.6063H62.9489V20.544H54.9207V23.7238H61.9805V26.733H54.906L54.9077 26.7313Z" fill="#393939"/>
<path d="M69.0617 32.519H65.8055V17.6209H69.0617V32.519Z" fill="#393939"/>
</svg>
